<?xml version="1.0" standalone="no"?>
<!DOCTYPE svg PUBLIC "-//W3C//DTD SVG 1.1//EN" "http://www.w3.org/Graphics/SVG/1.1/DTD/svg11.dtd" >
<svg xmlns="http://www.w3.org/2000/svg">
<metadata></metadata>
<defs>
<font id="a_futuraortoltlight" horiz-adv-x="1208" >
<font-face units-per-em="2048" ascent="1638" descent="-410" />
<missing-glyph horiz-adv-x="512" />
<glyph horiz-adv-x="2048" />
<glyph horiz-adv-x="2048" />
<glyph unicode="&#xd;" horiz-adv-x="512" />
<glyph unicode=" "  horiz-adv-x="512" />
<glyph unicode="&#x09;" horiz-adv-x="512" />
<glyph unicode="&#xa0;" horiz-adv-x="512" />
<glyph unicode="!" horiz-adv-x="651" d="M221 66q0 43 30 73.5t73 30.5q44 0 75 -30.5t31 -73.5q0 -45 -31 -76t-75 -31q-43 0 -73 31t-30 76zM262 311v1233h127v-1233h-127z" />
<glyph unicode="&#x22;" horiz-adv-x="565" d="M102 932v567h88v-567h-88zM373 932v567h90v-567h-90z" />
<glyph unicode="#" horiz-adv-x="1718" d="M190 399l27 148h291l70 418h-291l26 149h293l53 311h119l-53 -311h393l53 311h119l-53 -311h293l-27 -149h-291l-71 -418h291l-25 -148h-291l-55 -313h-121l53 313h-389l-55 -313h-121l53 313h-291zM629 547h391l72 418h-392z" />
<glyph unicode="$" d="M164 340h125q71 -223 289 -223v649q-161 81 -232 148q-108 103 -108 243q0 137 104 240.5t236 103.5v101h81v-101q120 0 216 -87q87 -81 120 -200h-123q-54 170 -213 170v-518q187 -90 259 -160q110 -107 110 -276q0 -175 -95 -292q-100 -122 -274 -138v-172h-81v172 q-148 0 -261 86q-121 93 -153 254zM367 1163q0 -156 211 -258v479q-88 0 -149.5 -67t-61.5 -154zM659 117q111 0 177 89q61 83 61 214q0 194 -238 309v-612z" />
<glyph unicode="%" horiz-adv-x="1536" d="M66 1130q0 182 79 284t220 102q143 0 223 -102.5t80 -283.5t-80 -283t-223 -102q-141 0 -220 101t-79 284zM186 1133q0 -289 179 -289q180 0 180 289q0 286 -180 286q-179 0 -179 -286zM276 -41l863 1557h110l-860 -1557h-113zM868 342q0 181 79 282t220 101 q143 0 223 -101t80 -282t-80 -282t-223 -101q-141 0 -220 101t-79 282zM991 344q0 -291 176 -291q181 0 181 291q0 287 -181 287q-176 0 -176 -287z" />
<glyph unicode="&#x26;" horiz-adv-x="1352" d="M98 377q0 142 87.5 258.5t291.5 243.5q-90 105 -122 157q-56 91 -56 178q0 134 105 219q96 78 227 78q149 0 229 -90q70 -80 70 -204q0 -99 -68 -184q-60 -76 -209 -181l359 -453l172 201h153l-250 -295l240 -305h-151l-175 219q-136 -146 -218 -198q-104 -66 -236 -66 q-222 0 -347 145q-102 119 -102 277zM238 377q0 -121 90.5 -213t222.5 -92q100 0 175 47q68 43 204 186l-383 483q-172 -119 -228 -184q-81 -95 -81 -227zM432 1217q0 -129 152 -281q112 69 158 127q53 68 53 160q0 72 -46 127q-49 59 -124 59q-76 0 -131 -48 q-62 -53 -62 -144z" />
<glyph unicode="'" horiz-adv-x="291" d="M102 932v567h88v-567h-88z" />
<glyph unicode="(" horiz-adv-x="512" d="M129 629q0 593 201 1165l106 -31q-172 -615 -172 -1134q0 -518 172 -1133l-106 -31q-201 572 -201 1164z" />
<glyph unicode=")" horiz-adv-x="512" d="M76 -504q172 615 172 1133q0 519 -172 1134l106 31q201 -572 201 -1165q0 -592 -201 -1164z" />
<glyph unicode="*" horiz-adv-x="885" d="M102 1044l236 136l-236 137l56 90l233 -135v272h105v-272l235 135l51 -90l-231 -137l231 -136l-51 -92l-235 138v-273h-105v273l-233 -138z" />
<glyph unicode="+" horiz-adv-x="1747" d="M260 580v90h561v579h103v-579h563v-90h-563v-580h-103v580h-561z" />
<glyph unicode="," horiz-adv-x="604" d="M123 -295l196 522h170l-264 -522h-102z" />
<glyph unicode="-" horiz-adv-x="768" d="M160 430v129h448v-129h-448z" />
<glyph unicode="." horiz-adv-x="604" d="M197 86q0 44 30.5 74t75.5 30q43 0 73 -30t30 -74t-30 -74t-73 -30q-45 0 -75.5 30t-30.5 74z" />
<glyph unicode="/" horiz-adv-x="844" d="M0 -195l733 1727h111l-733 -1727h-111z" />
<glyph unicode="0" d="M106 762q0 361 134 571.5t364 210.5t364 -210.5t134 -571.5q0 -378 -133.5 -592.5t-364.5 -214.5t-364.5 214.5t-133.5 592.5zM242 762q0 -326 95.5 -505t266.5 -179t267 179.5t96 508.5q0 306 -96.5 480.5t-266.5 174.5t-266 -175t-96 -484z" />
<glyph unicode="1" d="M281 0v117h276v1247h-205v121h338v-1368h240v-117h-649z" />
<glyph unicode="2" d="M74 0l510 561q179 197 248 318q63 110 63 211q0 138 -91 233q-94 98 -239 98q-148 0 -237.5 -108t-89.5 -275h-134v15q0 216 129.5 353.5t344.5 137.5q208 0 335 -129q123 -124 123 -317q0 -238 -356 -619l-338 -362h694v-117h-962z" />
<glyph unicode="3" d="M74 432h135q0 -354 381 -354q162 0 261 114.5t99 299.5q0 246 -167 332q-115 59 -384 59l385 499h-594v117h842l-414 -518q472 -37 472 -489q0 -227 -139 -380q-143 -157 -365 -157q-233 0 -374 136q-138 132 -138 341z" />
<glyph unicode="4" d="M61 369l813 1175v-1059h177v-116h-177v-369h-129v369h-684zM276 485h469v686z" />
<glyph unicode="5" d="M111 309h133q44 -133 117 -181q70 -46 214 -46q357 0 357 405q0 357 -373 357q-199 0 -344 -115l-8 2l1 8l126 746h680v-117h-582l-78 -461q109 47 238 47q211 0 345 -129.5t134 -341.5q0 -233 -136 -377q-137 -147 -364 -147q-168 0 -297 94q-135 98 -163 256z" />
<glyph unicode="6" d="M135 418q0 150 48 256q51 114 245 381l322 444h151l-485 -663l2 -2q108 61 229 61q173 0 289 -101q149 -129 149 -356q0 -202 -145 -344q-141 -139 -330 -139q-201 0 -338 134t-137 329zM270 426q0 -158 93.5 -253t246.5 -95q142 0 239 100.5t97 251.5q0 164 -94 261 q-91 93 -240 93t-245.5 -100t-96.5 -258z" />
<glyph unicode="7" d="M129 1368v117h1001l-724 -1485h-148l682 1368h-811z" />
<glyph unicode="8" d="M133 399q0 152 77 262.5t212 145.5q-112 42 -177 141q-61 95 -61 213q0 163 114 271q118 112 306 112t306 -112q114 -108 114 -271q0 -118 -61 -213q-65 -99 -177 -141q135 -35 212 -145.5t77 -262.5q0 -188 -130 -314q-134 -130 -341 -130t-341 130q-130 126 -130 314z M270 399q0 -152 89 -237.5t245 -85.5t245 85.5t89 237.5q0 155 -90 249.5t-244 94.5t-244 -94.5t-90 -249.5zM313 1161q0 -129 75 -214q80 -91 214 -91h4q134 0 214 91q75 85 75 214q0 117 -75 192q-79 79 -216 79q-136 0 -216 -79q-75 -75 -75 -192z" />
<glyph unicode="9" d="M123 1061q0 202 145 344q141 139 330 139q201 0 338 -134t137 -329q0 -150 -48 -256q-51 -113 -245 -381l-321 -444h-152l486 664l-2 2q-110 -62 -230 -62q-173 0 -290 102q-148 129 -148 355zM262 1069q0 -164 94 -261q91 -93 240 -93t245.5 100t96.5 258t-93.5 253 t-246.5 95q-142 0 -239 -100.5t-97 -251.5z" />
<glyph unicode=":" horiz-adv-x="651" d="M221 86q0 44 30 74t73 30q45 0 75.5 -30t30.5 -74t-30.5 -74t-75.5 -30q-43 0 -73 30t-30 74zM221 965q0 44 30 74t73 30q45 0 75.5 -30t30.5 -74q0 -45 -31 -76t-75 -31q-43 0 -73 31t-30 76z" />
<glyph unicode=";" horiz-adv-x="651" d="M98 -291l209 551l148 -63l-271 -527zM274 965q0 44 31 74t76 30q43 0 73.5 -30t30.5 -74t-30.5 -75.5t-73.5 -31.5q-45 0 -76 31t-31 76z" />
<glyph unicode="&#x3c;" horiz-adv-x="1747" d="M270 594v61l1207 496v-92l-1071 -434l1071 -435v-90z" />
<glyph unicode="=" horiz-adv-x="1747" d="M260 397v82h1227v-82h-1227zM260 770v82h1227v-82h-1227z" />
<glyph unicode="&#x3e;" horiz-adv-x="1747" d="M270 100v90l1069 435l-1069 434v92l1207 -496v-61z" />
<glyph unicode="?" horiz-adv-x="1077" d="M176 1122v33q0 178 100 283.5t273 105.5q153 0 247 -96q91 -94 91 -244q0 -122 -55 -196q-58 -77 -244 -199q-232 -152 -232 -264q0 -73 50 -118.5t129 -45.5q190 0 190 184v17h115v-25q0 -281 -320 -281q-128 0 -207.5 75.5t-79.5 197.5q0 104 68 180q56 64 227 176 q230 150 230 295q0 101 -58 161t-159 60q-115 0 -178.5 -80t-63.5 -213v-6h-123zM410 66q0 43 31 73.5t75 30.5t74.5 -30.5t30.5 -73.5q0 -45 -30.5 -76t-74.5 -31t-75 31t-31 76z" />
<glyph unicode="@" horiz-adv-x="2048" d="M135 535q0 335 197 585q287 365 780 365q328 0 545 -172q254 -201 254 -516q0 -354 -240 -553q-136 -113 -301 -113q-188 0 -188 148q-110 -148 -281 -148q-309 0 -309 332q0 220 123 383q132 174 332 174q190 0 251 -172l60 131h78l-133 -565q-23 -98 -23 -111 q0 -94 117 -94q96 0 198 78q99 75 158 211t59 288q0 297 -212 466q-195 155 -498 155q-330 0 -559 -197q-305 -263 -305 -688q0 -348 231 -547q217 -188 567 -188q329 0 613 199l28 -47q-288 -226 -637 -226q-367 0 -608 191q-297 236 -297 631zM694 457q0 -118 57.5 -185 t157.5 -67q107 0 193.5 75.5t114.5 198.5l59 258q-44 209 -229 209q-162 0 -263 -160q-90 -142 -90 -329z" />
<glyph unicode="A" horiz-adv-x="1360" d="M-12 0l692 1544l692 -1544h-135l-201 455h-712l-201 -455h-135zM375 571h610l-305 689z" />
<glyph unicode="B" horiz-adv-x="1186" d="M184 0v1499h314q479 0 479 -354q0 -118 -57 -207.5t-146 -120.5l-2 -4q322 -74 322 -385q0 -207 -145 -321q-137 -107 -367 -107h-398zM313 117h269q368 0 368 311q0 313 -375 313h-262v-624zM313 858h211q175 0 250 70q68 64 68 202q0 103 -67 170q-82 82 -249 82h-213 v-524z" />
<glyph unicode="C" horiz-adv-x="1487" d="M111 750q0 331 228 564q225 230 542 230q326 0 538 -176v-158q-222 217 -538 217q-252 0 -443.5 -204.5t-191.5 -472.5q0 -277 177 -473q184 -203 456 -203q152 0 301 60q140 57 239 151v-156q-78 -70 -220 -118q-157 -54 -322 -54q-337 0 -553 229q-213 225 -213 564z " />
<glyph unicode="D" horiz-adv-x="1483" d="M184 0v1499h375q383 0 605 -221q208 -206 208 -528q0 -289 -173 -493q-217 -257 -640 -257h-375zM313 117h232q347 0 529 191q161 168 161 442q0 289 -184.5 461.5t-497.5 172.5h-240v-1267z" />
<glyph unicode="E" horiz-adv-x="1090" d="M184 0v1499h795v-115h-666v-501h633v-117h-633v-649h666v-117h-795z" />
<glyph unicode="F" horiz-adv-x="940" d="M184 0v1499h695v-117h-566v-499h529v-117h-529v-766h-129z" />
<glyph unicode="G" horiz-adv-x="1694" d="M111 750q0 324 213 551q228 243 587 243q326 0 619 -178v-147q-281 208 -619 208q-293 0 -482 -203q-181 -194 -181 -474q0 -306 189 -494q185 -184 474 -184q292 0 519 161v433h-547v116h676v-608q-300 -219 -648 -219t-569 209q-231 219 -231 586z" />
<glyph unicode="H" horiz-adv-x="1511" d="M184 0v1499h129v-616h885v616h129v-1499h-129v766h-885v-766h-129z" />
<glyph unicode="I" horiz-adv-x="512" d="M190 0v1499h132v-1499h-132z" />
<glyph unicode="J" horiz-adv-x="641" d="M-25 0v125q68 -45 175 -45q167 0 167 268v1151h132v-1163q0 -373 -291 -373q-112 0 -183 37z" />
<glyph unicode="K" horiz-adv-x="1196" d="M184 0v1499h129v-713l721 713h170l-741 -719l751 -780h-170l-731 778v-778h-129z" />
<glyph unicode="L" horiz-adv-x="829" d="M190 0v1499h129v-1382h498v-117h-627z" />
<glyph unicode="M" horiz-adv-x="1823" d="M86 0l205 1542l620 -1327l621 1327l205 -1542h-123l-148 1130l-555 -1175l-555 1175l-147 -1130h-123z" />
<glyph unicode="N" horiz-adv-x="1599" d="M184 0v1544l1106 -1251v1206h125v-1544l-1106 1251v-1206h-125z" />
<glyph unicode="O" horiz-adv-x="1827" d="M111 750q0 350 234 575q228 219 568 219t568 -219q235 -225 235 -575t-235 -576q-228 -219 -568 -219t-568 219q-234 226 -234 576zM248 750q0 -292 192 -485t473 -193q282 0 474 192.5t192 485.5q0 294 -193 487q-191 190 -473 190q-281 0 -472 -190 q-193 -194 -193 -487z" />
<glyph unicode="P" horiz-adv-x="1124" d="M184 0v1499h400q438 0 438 -393q0 -399 -438 -399h-271v-707h-129zM313 823h265q309 0 309 283q0 276 -309 276h-265v-559z" />
<glyph unicode="Q" horiz-adv-x="1853" d="M123 750q0 352 234 576q228 218 569 218t569 -218q234 -224 234 -576q0 -380 -269 -609l193 -219h-148l-133 156q-199 -123 -446 -123q-341 0 -569 219q-234 224 -234 576zM260 750q0 -292 194 -486q191 -192 472 -192q196 0 362 102l-295 344h144l239 -278 q215 192 215 510q0 295 -193 487q-189 190 -472 190q-282 0 -472 -190q-194 -193 -194 -487z" />
<glyph unicode="R" horiz-adv-x="1106" d="M184 0v1499h400q444 0 444 -393q0 -399 -444 -399l503 -707h-167l-476 707h-131v-707h-129zM313 823h265q309 0 309 283q0 276 -309 276h-265v-559z" />
<glyph unicode="S" horiz-adv-x="1110" d="M66 416h139q0 -152 86 -244q91 -98 256 -98q156 0 249 96q89 93 89 238q0 114 -63 182q-70 74 -285 176q-201 95 -291 187q-101 103 -101 237q0 151 100 248q109 106 296 106q185 0 298 -88q119 -94 119 -262h-135q0 115 -80 175q-73 56 -196 56q-266 0 -266 -231 q0 -104 73 -172q68 -65 267 -156q234 -107 316.5 -200t82.5 -250q0 -197 -130 -327q-133 -134 -343 -134q-215 0 -350 135q-131 130 -131 326z" />
<glyph unicode="T" horiz-adv-x="1016" d="M12 1382v117h992v-117h-431v-1382h-131v1382h-430z" />
<glyph unicode="U" horiz-adv-x="1401" d="M166 489v1010h129v-1010q0 -173 100 -288q111 -127 305 -127t305 127q101 115 101 288v1010h129v-1010q0 -237 -138 -382q-145 -152 -397 -152t-396 152q-138 145 -138 382z" />
<glyph unicode="V" horiz-adv-x="1204" d="M-14 1499h145l471 -1204l471 1204h145l-616 -1544z" />
<glyph unicode="W" horiz-adv-x="1921" d="M-6 1499h123l391 -1204l452 1249l453 -1249l391 1204h123l-504 -1544l-463 1274l-462 -1274z" />
<glyph unicode="X" horiz-adv-x="1114" d="M12 0l475 799l-417 700h141l346 -590l346 590h141l-417 -700l475 -799h-141l-404 688l-403 -688h-142z" />
<glyph unicode="Y" horiz-adv-x="1098" d="M6 1499h141l402 -694l401 694h142l-478 -805v-694h-131v694z" />
<glyph unicode="Z" horiz-adv-x="1049" d="M0 0l813 1382h-729v117h940l-815 -1382h815v-117h-1024z" />
<glyph unicode="[" horiz-adv-x="768" d="M184 -455v2071h441v-117h-312v-1837h312v-117h-441z" />
<glyph unicode="\" horiz-adv-x="1028" d="M15 1589h123l845 -2044h-121z" />
<glyph unicode="]" horiz-adv-x="768" d="M143 -338h312v1837h-312v117h441v-2071h-441v117z" />
<glyph unicode="^" horiz-adv-x="1024" d="M80 1081l338 430h190l336 -430h-147l-285 357l-285 -357h-147z" />
<glyph unicode="_" horiz-adv-x="1024" d="M-12 -332h1048v-123h-1048v123z" />
<glyph unicode="`" horiz-adv-x="512" d="M55 1499h211l162 -272h-123z" />
<glyph unicode="a" horiz-adv-x="1333" d="M104 516q0 241 151 398t390 157q110 0 209 -51q115 -60 182 -176v188h119v-1032h-119v180q-156 -219 -395 -219q-241 0 -391 161q-146 156 -146 394zM233 516q0 -187 113 -315q116 -131 293 -131q187 0 295 127q102 121 102 319q0 188 -112 316q-115 131 -285 131 q-176 0 -291 -126t-115 -321z" />
<glyph unicode="b" horiz-adv-x="1333" d="M178 0v1690h123v-684q0 -62 -4 -166q0 1 1 2q133 229 392 229q239 0 389 -157.5t150 -399.5q0 -238 -145 -394q-150 -161 -390 -161q-241 0 -397 219v-178h-119zM297 514q0 -198 102 -318q106 -126 293 -126q176 0 293 131q115 128 115 313q0 194 -116.5 320.5 t-291.5 126.5q-170 0 -282.5 -129.5t-112.5 -317.5z" />
<glyph unicode="c" horiz-adv-x="1051" d="M104 514q0 241 159 399t407 158q182 0 307 -70v-141q-121 101 -307 101q-180 0 -305 -121q-132 -128 -132 -326q0 -195 132 -322q125 -120 305 -120q177 0 307 102v-139q-141 -74 -307 -74q-249 0 -407.5 154.5t-158.5 398.5z" />
<glyph unicode="d" horiz-adv-x="1333" d="M104 514q0 242 150 399.5t389 157.5q119 0 228 -62q113 -65 165 -169q-4 104 -4 166v684h123v-1690h-119v178q-156 -219 -397 -219q-240 0 -390 161q-145 156 -145 394zM233 514q0 -185 115 -313q117 -131 293 -131q187 0 294 126q101 120 101 318q0 188 -111 316 q-114 131 -284 131q-175 0 -291.5 -126.5t-116.5 -320.5z" />
<glyph unicode="e" horiz-adv-x="1278" d="M104 516q0 241 151 398t388 157q236 0 386 -157q147 -155 147 -392h-943q0 -201 112 -325.5t298 -124.5q275 0 365 225h135q-56 -156 -180 -243q-132 -93 -320 -93q-246 0 -395 158q-144 153 -144 397zM242 627h805q-38 156 -153 251q-111 91 -251 91t-251 -91 q-115 -95 -150 -251z" />
<glyph unicode="f" horiz-adv-x="530" d="M41 922v110h158v408q0 268 225 268q92 0 149 -18v-111q-61 25 -122 25q-129 0 -129 -187v-385h251v-110h-251v-922h-123v922h-158z" />
<glyph unicode="g" horiz-adv-x="1333" d="M104 518q0 238 145 393q150 160 390 160q243 0 397 -217v178h119v-1071q0 -575 -516 -575q-236 0 -364 105.5t-128 306.5h129q0 -170 98 -241q84 -60 265 -60q393 0 393 464v68q0 60 4 164q-133 -232 -393 -232q-239 0 -390 159q-149 156 -149 398zM233 518 q0 -194 116.5 -320t291.5 -126q171 0 285 129.5t114 316.5q0 197 -103 318q-108 125 -296 125q-176 0 -292 -129t-116 -314z" />
<glyph unicode="h" horiz-adv-x="1198" d="M178 0v1690h123v-703q0 -73 -4 -133q50 100 150 158.5t215 58.5q370 0 370 -428v-643h-123v643q0 318 -252 318q-149 0 -249 -111q-107 -119 -107 -313v-537h-123z" />
<glyph unicode="i" horiz-adv-x="479" d="M139 1391q0 46 29 75t72 29t71.5 -29t28.5 -75q0 -44 -28.5 -73.5t-71.5 -29.5t-72 29.5t-29 73.5zM178 0v1032h123v-1032h-123z" />
<glyph unicode="j" horiz-adv-x="479" d="M139 1391q0 46 29 75t72 29t71.5 -29t28.5 -75q0 -44 -28.5 -73.5t-71.5 -29.5t-72 29.5t-29 73.5zM178 -614v1646h123v-1646h-123z" />
<glyph unicode="k" horiz-adv-x="1053" d="M178 0v1690h123v-1137l494 479h172l-523 -479l609 -553h-172l-580 541v-541h-123z" />
<glyph unicode="l" horiz-adv-x="483" d="M180 -2v1692h123v-1692h-123z" />
<glyph unicode="m" horiz-adv-x="1794" d="M178 0v1032h119v-172q106 211 326 211q249 0 317 -217q46 99 146 159q96 58 200 58q342 0 342 -412v-659h-123v659q0 302 -223 302q-130 0 -218 -99q-99 -110 -99 -297v-565h-123v659q0 302 -224 302q-124 0 -214 -96q-103 -110 -103 -300v-565h-123z" />
<glyph unicode="n" horiz-adv-x="1192" d="M178 0v1032h119v-178q45 100 144 158.5t214 58.5q371 0 371 -446v-625h-123v625q0 170 -73 257q-66 79 -179 79q-149 0 -246 -111q-104 -118 -104 -313v-537h-123z" />
<glyph unicode="o" horiz-adv-x="1348" d="M104 516q0 240 161 396.5t409 156.5t408.5 -156.5t160.5 -396.5t-160.5 -396.5t-408.5 -156.5t-409 156.5t-161 396.5zM233 516q0 -196 136 -323q128 -119 305 -119t304 119q136 126 136 323t-136 323q-127 119 -304 119t-305 -119q-136 -127 -136 -323z" />
<glyph unicode="p" horiz-adv-x="1333" d="M102 -614v1646h119v-178q156 219 397 219q240 0 390 -161q145 -156 145 -394q0 -242 -149 -398q-151 -159 -390 -159q-260 0 -393 232q4 -104 4 -166v-641h-123zM217 518q0 -187 114 -316.5t285 -129.5q175 0 291.5 126t116.5 320q0 185 -116 315t-292 130 q-187 0 -295 -126q-104 -122 -104 -319z" />
<glyph unicode="q" horiz-adv-x="1333" d="M104 518q0 238 145 394q150 161 390 161q241 0 397 -219v178h119v-1646h-123v641q0 62 4 166q-133 -232 -393 -232q-239 0 -390 159q-149 156 -149 398zM233 518q0 -194 116.5 -320t291.5 -126q171 0 285 129.5t114 316.5q0 197 -103 319q-109 126 -296 126 q-176 0 -292 -130t-116 -315z" />
<glyph unicode="r" horiz-adv-x="743" d="M184 0v1032h119v-172q106 203 295 203q62 0 121 -31v-121q-53 41 -123 41q-123 0 -198 -88q-91 -106 -91 -323v-541h-123z" />
<glyph unicode="s" horiz-adv-x="903" d="M80 293h123q0 -108 54 -159q63 -60 212 -60q112 0 175 61q56 54 56 137q0 89 -45 131q-49 46 -206 95q-178 55 -241 112q-73 65 -73 189q0 127 103 202q94 68 235 68q114 0 206 -72q101 -79 101 -196h-116q0 75 -55 118.5t-142 43.5q-209 0 -209 -166q0 -71 44 -109.5 t177 -79.5q184 -57 257 -118q93 -77 93 -214t-93 -223q-98 -90 -267 -90q-185 0 -287 87t-102 243z" />
<glyph unicode="t" horiz-adv-x="498" d="M43 922v110h141v359h123v-359h215v-110h-215v-922h-123v922h-141z" />
<glyph unicode="u" horiz-adv-x="1167" d="M166 406v628h123v-626q0 -338 295 -338t295 338v624h122v-626q0 -201 -98 -316q-108 -127 -319 -127t-320 127q-98 115 -98 316z" />
<glyph unicode="v" horiz-adv-x="954" d="M-6 1032h133l350 -807l350 807h134l-484 -1077z" />
<glyph unicode="w" horiz-adv-x="1528" d="M6 1032h131l295 -786l332 829l332 -829l295 786h131l-422 -1077l-336 868l-336 -868z" />
<glyph unicode="x" horiz-adv-x="940" d="M6 0l395 530l-370 502h137l303 -411l301 411h137l-370 -502l395 -530h-143l-320 442l-321 -442h-144z" />
<glyph unicode="y" horiz-adv-x="1057" d="M12 1032h135l410 -885l367 885h133l-697 -1646h-135l264 622z" />
<glyph unicode="z" horiz-adv-x="946" d="M37 2l635 920h-594v110h805l-629 -919h643v-111h-860z" />
<glyph unicode="{" horiz-adv-x="1024" d="M123 487v111h61q139 0 194.5 62.5t55.5 220.5v336q0 226 64 307q71 90 280 90h62v-115h-54q-142 0 -184 -53q-39 -48 -39 -205v-336q0 -148 -22 -213q-36 -105 -148 -149q112 -44 148 -148q22 -65 22 -213v-338q0 -157 37 -204q42 -52 182 -52h58v-114h-62 q-209 0 -280 90q-64 80 -64 305v336q0 159 -56 220.5t-198 61.5h-57z" />
<glyph unicode="|" horiz-adv-x="1024" d="M467 -496v2098h90v-2098h-90z" />
<glyph unicode="}" horiz-adv-x="1024" d="M184 -412h58q140 0 182 52q37 47 37 204v338q0 148 22 213q36 104 148 148q-112 44 -148 149q-22 65 -22 213v336q0 157 -39 205q-42 53 -184 53h-54v115h62q209 0 280 -90q64 -81 64 -307v-336q0 -158 55.5 -220.5t194.5 -62.5h61v-111h-57q-142 0 -198 -61.5 t-56 -220.5v-336q0 -225 -64 -305q-71 -90 -280 -90h-62v114z" />
<glyph unicode="~" d="M86 674v121q105 108 227 108q83 0 303 -88q215 -86 279 -86q120 0 229 111v-123q-100 -107 -229 -107q-78 0 -299 86t-283 86q-117 0 -227 -108z" />
<glyph unicode="&#xa5;" horiz-adv-x="2048" />
<glyph unicode="&#xa8;" horiz-adv-x="2048" />
<glyph unicode="&#xa9;" horiz-adv-x="1536" d="M51 717q0 298 211 512q208 211 504 211q295 0 512 -215q207 -205 207 -508q0 -298 -207 -502q-218 -215 -512 -215q-293 0 -506 215q-209 211 -209 502zM121 717q0 -263 188 -453t457 -190q266 0 461 192q188 185 188 451q0 271 -189 460t-460 189q-270 0 -453 -186 q-192 -195 -192 -463zM393 721q0 203 103.5 323.5t277.5 120.5q129 0 218.5 -71t101.5 -183h-105q-39 170 -221 170q-125 0 -193.5 -95.5t-68.5 -268.5q0 -166 70.5 -262.5t191.5 -96.5q89 0 153.5 52t82.5 139h100q-11 -121 -106.5 -199t-235.5 -78q-169 0 -269 121.5 t-100 327.5z" />
<glyph unicode="&#xab;" horiz-adv-x="768" d="M23 535l239 368h119l-238 -368l238 -369h-119zM358 535l240 368h119l-238 -368l238 -369h-119z" />
<glyph unicode="&#xad;" horiz-adv-x="768" d="M160 430v129h448v-129h-448z" />
<glyph unicode="&#xae;" horiz-adv-x="1536" d="M49 719q0 294 213 510q206 209 502 209q299 0 512 -213q209 -209 209 -506q0 -298 -209 -504q-218 -215 -512 -215q-289 0 -504 215q-211 211 -211 504zM121 719q0 -265 188 -455t455 -190q266 0 461 192q188 185 188 453q0 269 -189 458t-460 189q-268 0 -451 -186 q-192 -195 -192 -461zM485 313v834h301q344 0 344 -229q0 -88 -54.5 -147.5t-145.5 -70.5l186 -387h-127l-180 371h-209v-371h-115zM600 762h164q143 0 196.5 34.5t53.5 123.5q0 147 -250 147h-164v-305z" />
<glyph unicode="&#xb4;" horiz-adv-x="2048" />
<glyph unicode="&#xb8;" horiz-adv-x="2048" />
<glyph unicode="&#xbb;" horiz-adv-x="768" d="M51 166l238 369l-238 368h119l240 -368l-240 -369h-119zM387 166l238 369l-238 368h119l239 -368l-239 -369h-119z" />
<glyph unicode="&#x2c6;" horiz-adv-x="2048" />
<glyph unicode="&#x2dc;" horiz-adv-x="2048" />
<glyph unicode="&#x401;" horiz-adv-x="1090" d="M184 0v1499h795v-115h-666v-501h633v-117h-633v-649h666v-117h-795zM328 1700q0 40 28 66t68 26q37 0 63.5 -26.5t26.5 -65.5t-26.5 -65.5t-63.5 -26.5q-40 0 -68 26t-28 66zM655 1700q0 39 28 65.5t67 26.5t65.5 -26t26.5 -66t-26.5 -66t-65.5 -26t-67 26.5t-28 65.5z " />
<glyph unicode="&#x402;" d="M63 428l211 211q-94 119 -94 266q0 149 94 271l-211 208l60 62l211 -213q120 96 268 96q146 0 270 -96l211 213l60 -62l-211 -208q94 -122 94 -271q0 -151 -94 -266l211 -211l-60 -61l-211 211q-120 -95 -270 -95q-144 0 -268 95l-211 -211zM266 909q0 -141 99.5 -240.5 t240.5 -99.5q138 0 238 100t100 240q0 138 -99 237t-239 99t-240 -99t-100 -237z" />
<glyph unicode="&#x403;" d="M63 428l211 211q-94 119 -94 266q0 149 94 271l-211 208l60 62l211 -213q120 96 268 96q146 0 270 -96l211 213l60 -62l-211 -208q94 -122 94 -271q0 -151 -94 -266l211 -211l-60 -61l-211 211q-120 -95 -270 -95q-144 0 -268 95l-211 -211zM266 909q0 -141 99.5 -240.5 t240.5 -99.5q138 0 238 100t100 240q0 138 -99 237t-239 99t-240 -99t-100 -237z" />
<glyph unicode="&#x404;" d="M63 428l211 211q-94 119 -94 266q0 149 94 271l-211 208l60 62l211 -213q120 96 268 96q146 0 270 -96l211 213l60 -62l-211 -208q94 -122 94 -271q0 -151 -94 -266l211 -211l-60 -61l-211 211q-120 -95 -270 -95q-144 0 -268 95l-211 -211zM266 909q0 -141 99.5 -240.5 t240.5 -99.5q138 0 238 100t100 240q0 138 -99 237t-239 99t-240 -99t-100 -237z" />
<glyph unicode="&#x405;" d="M63 428l211 211q-94 119 -94 266q0 149 94 271l-211 208l60 62l211 -213q120 96 268 96q146 0 270 -96l211 213l60 -62l-211 -208q94 -122 94 -271q0 -151 -94 -266l211 -211l-60 -61l-211 211q-120 -95 -270 -95q-144 0 -268 95l-211 -211zM266 909q0 -141 99.5 -240.5 t240.5 -99.5q138 0 238 100t100 240q0 138 -99 237t-239 99t-240 -99t-100 -237z" />
<glyph unicode="&#x406;" d="M63 428l211 211q-94 119 -94 266q0 149 94 271l-211 208l60 62l211 -213q120 96 268 96q146 0 270 -96l211 213l60 -62l-211 -208q94 -122 94 -271q0 -151 -94 -266l211 -211l-60 -61l-211 211q-120 -95 -270 -95q-144 0 -268 95l-211 -211zM266 909q0 -141 99.5 -240.5 t240.5 -99.5q138 0 238 100t100 240q0 138 -99 237t-239 99t-240 -99t-100 -237z" />
<glyph unicode="&#x407;" d="M63 428l211 211q-94 119 -94 266q0 149 94 271l-211 208l60 62l211 -213q120 96 268 96q146 0 270 -96l211 213l60 -62l-211 -208q94 -122 94 -271q0 -151 -94 -266l211 -211l-60 -61l-211 211q-120 -95 -270 -95q-144 0 -268 95l-211 -211zM266 909q0 -141 99.5 -240.5 t240.5 -99.5q138 0 238 100t100 240q0 138 -99 237t-239 99t-240 -99t-100 -237z" />
<glyph unicode="&#x408;" d="M63 428l211 211q-94 119 -94 266q0 149 94 271l-211 208l60 62l211 -213q120 96 268 96q146 0 270 -96l211 213l60 -62l-211 -208q94 -122 94 -271q0 -151 -94 -266l211 -211l-60 -61l-211 211q-120 -95 -270 -95q-144 0 -268 95l-211 -211zM266 909q0 -141 99.5 -240.5 t240.5 -99.5q138 0 238 100t100 240q0 138 -99 237t-239 99t-240 -99t-100 -237z" />
<glyph unicode="&#x409;" d="M63 428l211 211q-94 119 -94 266q0 149 94 271l-211 208l60 62l211 -213q120 96 268 96q146 0 270 -96l211 213l60 -62l-211 -208q94 -122 94 -271q0 -151 -94 -266l211 -211l-60 -61l-211 211q-120 -95 -270 -95q-144 0 -268 95l-211 -211zM266 909q0 -141 99.5 -240.5 t240.5 -99.5q138 0 238 100t100 240q0 138 -99 237t-239 99t-240 -99t-100 -237z" />
<glyph unicode="&#x40a;" d="M63 428l211 211q-94 119 -94 266q0 149 94 271l-211 208l60 62l211 -213q120 96 268 96q146 0 270 -96l211 213l60 -62l-211 -208q94 -122 94 -271q0 -151 -94 -266l211 -211l-60 -61l-211 211q-120 -95 -270 -95q-144 0 -268 95l-211 -211zM266 909q0 -141 99.5 -240.5 t240.5 -99.5q138 0 238 100t100 240q0 138 -99 237t-239 99t-240 -99t-100 -237z" />
<glyph unicode="&#x40b;" d="M63 428l211 211q-94 119 -94 266q0 149 94 271l-211 208l60 62l211 -213q120 96 268 96q146 0 270 -96l211 213l60 -62l-211 -208q94 -122 94 -271q0 -151 -94 -266l211 -211l-60 -61l-211 211q-120 -95 -270 -95q-144 0 -268 95l-211 -211zM266 909q0 -141 99.5 -240.5 t240.5 -99.5q138 0 238 100t100 240q0 138 -99 237t-239 99t-240 -99t-100 -237z" />
<glyph unicode="&#x40c;" d="M63 428l211 211q-94 119 -94 266q0 149 94 271l-211 208l60 62l211 -213q120 96 268 96q146 0 270 -96l211 213l60 -62l-211 -208q94 -122 94 -271q0 -151 -94 -266l211 -211l-60 -61l-211 211q-120 -95 -270 -95q-144 0 -268 95l-211 -211zM266 909q0 -141 99.5 -240.5 t240.5 -99.5q138 0 238 100t100 240q0 138 -99 237t-239 99t-240 -99t-100 -237z" />
<glyph unicode="&#x40e;" d="M63 428l211 211q-94 119 -94 266q0 149 94 271l-211 208l60 62l211 -213q120 96 268 96q146 0 270 -96l211 213l60 -62l-211 -208q94 -122 94 -271q0 -151 -94 -266l211 -211l-60 -61l-211 211q-120 -95 -270 -95q-144 0 -268 95l-211 -211zM266 909q0 -141 99.5 -240.5 t240.5 -99.5q138 0 238 100t100 240q0 138 -99 237t-239 99t-240 -99t-100 -237z" />
<glyph unicode="&#x40f;" d="M63 428l211 211q-94 119 -94 266q0 149 94 271l-211 208l60 62l211 -213q120 96 268 96q146 0 270 -96l211 213l60 -62l-211 -208q94 -122 94 -271q0 -151 -94 -266l211 -211l-60 -61l-211 211q-120 -95 -270 -95q-144 0 -268 95l-211 -211zM266 909q0 -141 99.5 -240.5 t240.5 -99.5q138 0 238 100t100 240q0 138 -99 237t-239 99t-240 -99t-100 -237z" />
<glyph unicode="&#x410;" horiz-adv-x="1360" d="M-12 0l692 1544l692 -1544h-135l-201 455h-712l-201 -455h-135zM375 571h610l-305 689z" />
<glyph unicode="&#x411;" horiz-adv-x="1174" d="M184 0v1499h805v-117h-676v-485h265q238 0 372 -115q137 -118 137 -331q0 -202 -127 -322q-136 -129 -382 -129h-394zM313 119h256q383 0 383 332q0 329 -383 329h-256v-661z" />
<glyph unicode="&#x412;" horiz-adv-x="1186" d="M184 0v1499h314q479 0 479 -354q0 -118 -57 -207.5t-146 -120.5l-2 -4q322 -74 322 -385q0 -207 -145 -321q-137 -107 -367 -107h-398zM313 117h269q368 0 368 311q0 313 -375 313h-262v-624zM313 858h211q175 0 250 70q68 64 68 202q0 103 -67 170q-82 82 -249 82h-213 v-524z" />
<glyph unicode="&#x413;" horiz-adv-x="872" d="M190 0v1499h682v-117h-553v-1382h-129z" />
<glyph unicode="&#x414;" horiz-adv-x="1346" d="M0 119q240 0 240 407v973h905v-1380h170v-414h-125v295h-1067v-295h-123v414zM229 119h787v1263h-651v-893q0 -249 -136 -370z" />
<glyph unicode="&#x415;" horiz-adv-x="1090" d="M184 0v1499h795v-115h-666v-501h633v-117h-633v-649h666v-117h-795z" />
<glyph unicode="&#x416;" horiz-adv-x="1804" d="M-18 0l712 778l-676 721h168l652 -713v713h129v-713l651 713h168l-676 -721l713 -778h-168l-688 778v-778h-129v778l-688 -778h-168z" />
<glyph unicode="&#x417;" horiz-adv-x="1161" d="M23 418h129q0 -156 105 -251t269 -95q163 0 267 94q108 99 108 262q0 150 -97 239q-100 91 -278 91h-155v116h133q325 0 325 283q0 133 -89 205q-81 65 -214 65q-136 0 -227 -70q-96 -74 -96 -194h-123q0 161 112 267q123 114 334 114q218 0 334 -111q107 -101 107 -270 q0 -258 -230 -346q305 -77 305 -401q0 -224 -172 -352q-146 -109 -344 -109q-221 0 -362 131.5t-141 331.5z" />
<glyph unicode="&#x418;" horiz-adv-x="1536" d="M184 -45v1544h129v-1218l1039 1263v-1544h-129v1219z" />
<glyph unicode="&#x419;" horiz-adv-x="1536" d="M184 -45v1544h129v-1218l1039 1263v-1544h-129v1219zM440 1860h117q0 -85 56 -134t155 -49t155 49t56 134h117q0 -121 -90 -203q-93 -84 -238 -84t-236.5 83t-91.5 204z" />
<glyph unicode="&#x41a;" horiz-adv-x="1196" d="M184 0v1499h129v-713l721 713h170l-741 -719l751 -780h-170l-731 778v-778h-129z" />
<glyph unicode="&#x41b;" horiz-adv-x="1360" d="M0 0v119q53 -15 109 -15q112 0 151 90q35 83 35 320v985h868v-1499h-129v1382h-614v-868q0 -302 -66 -414t-241 -112q-50 0 -113 12z" />
<glyph unicode="&#x41c;" horiz-adv-x="1823" d="M86 0l205 1542l620 -1327l621 1327l205 -1542h-123l-148 1130l-555 -1175l-555 1175l-147 -1130h-123z" />
<glyph unicode="&#x41d;" horiz-adv-x="1511" d="M184 0v1499h129v-616h885v616h129v-1499h-129v766h-885v-766h-129z" />
<glyph unicode="&#x41e;" horiz-adv-x="1827" d="M111 750q0 350 234 575q228 219 568 219t568 -219q235 -225 235 -575t-235 -576q-228 -219 -568 -219t-568 219q-234 226 -234 576zM248 750q0 -292 192 -485t473 -193q282 0 474 192.5t192 485.5q0 294 -193 487q-191 190 -473 190q-281 0 -472 -190 q-193 -194 -193 -487z" />
<glyph unicode="&#x41f;" horiz-adv-x="1493" d="M184 0v1499h1125v-1499h-129v1382h-867v-1382h-129z" />
<glyph unicode="&#x420;" horiz-adv-x="1143" d="M188 0v1499h398q228 0 354 -115q123 -113 123 -313q0 -182 -120 -291q-124 -112 -345 -112h-281v-668h-129zM317 778h248q363 0 363 303t-357 303h-254v-606z" />
<glyph unicode="&#x421;" horiz-adv-x="1487" d="M111 750q0 331 228 564q225 230 542 230q326 0 538 -176v-158q-222 217 -538 217q-252 0 -443.5 -204.5t-191.5 -472.5q0 -277 177 -473q184 -203 456 -203q152 0 301 60q140 57 239 151v-156q-78 -70 -220 -118q-157 -54 -322 -54q-337 0 -553 229q-213 225 -213 564z " />
<glyph unicode="&#x422;" horiz-adv-x="1016" d="M12 1382v117h992v-117h-431v-1382h-131v1382h-430z" />
<glyph unicode="&#x423;" horiz-adv-x="1190" d="M6 1499h135l500 -969l442 969h119l-684 -1499h-119l183 401z" />
<glyph unicode="&#x424;" horiz-adv-x="1733" d="M80 795q0 260 166 418q176 167 489 167h68v168h127v-168h67q313 0 489 -167q167 -158 167 -418q0 -266 -167 -422q-174 -164 -489 -164h-67v-209h-127v209h-68q-315 0 -489 164q-166 156 -166 422zM215 795q0 -469 520 -469h68v938h-68q-247 0 -391 -147 q-129 -131 -129 -322zM930 326h67q521 0 521 469q0 191 -129 322q-144 147 -392 147h-67v-938z" />
<glyph unicode="&#x425;" horiz-adv-x="1114" d="M12 0l475 799l-417 700h141l346 -590l346 590h141l-417 -700l475 -799h-141l-404 688l-403 -688h-142z" />
<glyph unicode="&#x426;" horiz-adv-x="1450" d="M184 0v1499h129v-1380h817v1380h130v-1380h170v-414h-125v295h-1121z" />
<glyph unicode="&#x427;" horiz-adv-x="1192" d="M102 1090v409h129v-403q0 -318 330 -318h311v721h129v-1499h-129v668h-323q-214 0 -330.5 110t-116.5 312z" />
<glyph unicode="&#x428;" horiz-adv-x="2046" d="M184 0v1499h129v-1380h645v1380h129v-1380h646v1380h129v-1499h-1678z" />
<glyph unicode="&#x429;" horiz-adv-x="2052" d="M184 0v1499h129v-1380h645v1380h129v-1380h646v1380h129v-1380h170v-414h-125v295h-1723z" />
<glyph unicode="&#x42a;" horiz-adv-x="1307" d="M0 1382v117h461v-608h250q239 0 373 -112q137 -116 137 -328q0 -202 -127 -322q-136 -129 -383 -129h-379v1382h-332zM461 117h241q383 0 383 334q0 323 -383 323h-241v-657z" />
<glyph unicode="&#x42b;" horiz-adv-x="1542" d="M184 0v1499h129v-608h250q239 0 373 -112q137 -116 137 -328q0 -202 -127 -322q-136 -129 -383 -129h-379zM313 117h242q383 0 383 334q0 323 -383 323h-242v-657zM1229 0v1499h129v-1499h-129z" />
<glyph unicode="&#x42c;" horiz-adv-x="1178" d="M188 0v1499h129v-608h265q239 0 373 -112q137 -116 137 -328q0 -202 -128 -322q-135 -129 -382 -129h-394zM317 117h256q383 0 383 334q0 323 -383 323h-256v-657z" />
<glyph unicode="&#x42d;" horiz-adv-x="1323" d="M68 76v153q201 -155 430 -155q239 0 407 191q172 195 172 485v2h-737v116h729q-32 250 -189.5 404.5t-385.5 154.5q-247 0 -426 -157v149q186 125 432 125q308 0 506 -210q206 -219 206 -584q0 -342 -197 -565q-200 -228 -515 -228q-226 0 -432 119z" />
<glyph unicode="&#x42e;" horiz-adv-x="2118" d="M184 0v1499h129v-651h207q30 312 243 507q207 191 497 191q314 0 527 -219q220 -225 220 -575t-220 -576q-213 -219 -527 -219q-310 0 -525 219q-221 224 -221 561h-201v-737h-129zM645 752q0 -292 178 -485t437 -193q260 0 436 192.5t176 485.5q0 294 -176 486t-436 192 q-259 0 -436 -191q-179 -194 -179 -487z" />
<glyph unicode="&#x42f;" horiz-adv-x="1192" d="M88 0l444 668q-195 0 -315.5 112t-120.5 291q0 208 140 320q134 108 370 108h395v-1499h-129v668h-198l-443 -668h-143zM231 1081q0 -303 363 -303h278v606h-264q-377 0 -377 -303z" />
<glyph unicode="&#x430;" horiz-adv-x="1333" d="M104 516q0 241 151 398t390 157q110 0 209 -51q115 -60 182 -176v186h119v-1028h-119v178q-156 -219 -395 -219q-241 0 -391 161q-146 156 -146 394zM233 516q0 -187 113 -315q116 -131 293 -131q187 0 295 127q102 121 102 319q0 188 -112 316q-115 131 -285 131 q-176 0 -291 -126t-115 -321z" />
<glyph unicode="&#x431;" horiz-adv-x="1296" d="M119 668q0 831 549 831q249 0 330 52q59 38 59 139h129q0 -316 -506 -316q-179 0 -277 -103q-129 -133 -147 -454q56 120 171 187q110 65 247 65q232 0 372 -153.5t140 -401.5q0 -256 -153 -407q-146 -144 -380 -144q-534 0 -534 705zM266 514q0 -184 98 -307 q106 -133 287 -133q190 0 301 129q105 121 105 311q0 194 -98 313q-108 131 -308 131q-170 0 -280 -134q-105 -127 -105 -310z" />
<glyph unicode="&#x432;" horiz-adv-x="1061" d="M178 0v1032h383q189 0 270 -97q54 -64 54 -157q0 -174 -148 -235q213 -44 213 -260q0 -283 -358 -283h-414zM301 104h268q252 0 252 183q0 82 -54 134q-65 64 -196 64h-270v-381zM301 584h266q195 0 195 182q0 162 -225 162h-236v-344z" />
<glyph unicode="&#x433;" horiz-adv-x="766" d="M184 0v1032h582v-110h-457v-922h-125z" />
<glyph unicode="&#x434;" horiz-adv-x="1137" d="M10 111q183 0 183 305v616h765v-921h134v-369h-119v258h-844v-258h-119v369zM223 111h613v811h-525v-512q0 -208 -88 -299z" />
<glyph unicode="&#x435;" horiz-adv-x="1278" d="M104 516q0 241 151 398t388 157q236 0 386 -157q147 -155 147 -392h-943q0 -201 112 -325.5t298 -124.5q275 0 365 225h135q-56 -156 -180 -243q-132 -93 -320 -93q-246 0 -395 158q-144 153 -144 397zM242 627h805q-38 156 -153 251q-111 91 -251 91t-251 -91 q-115 -95 -150 -251z" />
<glyph unicode="&#x436;" horiz-adv-x="1491" d="M6 0l535 522l-461 510h172l432 -506v506h123v-506l432 506h172l-461 -510l535 -522h-172l-506 516v-516h-123v516l-506 -516h-172z" />
<glyph unicode="&#x437;" horiz-adv-x="1024" d="M88 276h129q0 -206 279 -206q288 0 288 206q0 90 -78 145.5t-210 55.5h-115v105h131q103 0 168 44q74 50 74 146q0 85 -69 138t-189 53q-112 0 -182 -54.5t-70 -142.5h-123q0 141 115 225q105 78 260 78q165 0 273 -83t108 -218q0 -161 -181 -240q86 -16 145 -75 q72 -72 72 -183q0 -154 -129 -236q-113 -71 -288 -71q-185 0 -295 84q-113 84 -113 229z" />
<glyph unicode="&#x438;" horiz-adv-x="1229" d="M178 -45v1077h135v-768l738 813v-1077h-123v772z" />
<glyph unicode="&#x439;" horiz-adv-x="1229" d="M178 -45v1077h135v-768l738 813v-1077h-123v772zM336 1417h117q0 -153 172 -153t172 153h116q0 -132 -92 -201q-77 -59 -196 -59t-197 59q-92 69 -92 201z" />
<glyph unicode="&#x43a;" horiz-adv-x="1053" d="M178 0v1032h123v-493l506 493h172l-530 -497l604 -535h-172l-580 528v-528h-123z" />
<glyph unicode="&#x43b;" horiz-adv-x="1130" d="M0 0v111q44 -25 90 -25q58 0 79 34.5t21 139.5v772h762v-1032h-123v922h-520v-695q0 -252 -200 -252q-62 0 -109 25z" />
<glyph unicode="&#x43c;" horiz-adv-x="1376" d="M49 0l236 1096l403 -899l404 899l235 -1096h-123l-151 739l-365 -784l-364 784l-152 -739h-123z" />
<glyph unicode="&#x43d;" horiz-adv-x="1235" d="M178 0v1032h123v-446h633v446h123v-1032h-123v479h-633v-479h-123z" />
<glyph unicode="&#x43e;" horiz-adv-x="1348" d="M104 516q0 240 161 396.5t409 156.5t408.5 -156.5t160.5 -396.5t-160.5 -396.5t-408.5 -156.5t-409 156.5t-161 396.5zM233 516q0 -196 136 -323q128 -119 305 -119t304 119q136 126 136 323t-136 323q-127 119 -304 119t-305 -119q-136 -127 -136 -323z" />
<glyph unicode="&#x43f;" horiz-adv-x="1217" d="M178 0v1032h860v-1032h-123v922h-614v-922h-123z" />
<glyph unicode="&#x440;" horiz-adv-x="1333" d="M102 -614v1646h119v-178q156 219 397 219q240 0 390 -161q145 -156 145 -394q0 -242 -149 -398q-151 -159 -390 -159q-260 0 -393 232q4 -104 4 -166v-641h-123zM217 518q0 -187 114 -316.5t285 -129.5q175 0 291.5 126t116.5 320q0 185 -116 315t-292 130 q-187 0 -295 -126q-104 -122 -104 -319z" />
<glyph unicode="&#x441;" horiz-adv-x="1051" d="M104 514q0 241 159 399t407 158q182 0 307 -70v-141q-121 101 -307 101q-180 0 -305 -121q-132 -128 -132 -326q0 -195 132 -322q125 -120 305 -120q177 0 307 102v-139q-141 -74 -307 -74q-249 0 -407.5 154.5t-158.5 398.5z" />
<glyph unicode="&#x442;" horiz-adv-x="838" d="M6 922v110h825v-110h-350v-922h-125v922h-350z" />
<glyph unicode="&#x443;" horiz-adv-x="1057" d="M12 1032h135l410 -885l367 885h133l-697 -1646h-135l264 622z" />
<glyph unicode="&#x444;" horiz-adv-x="1810" d="M104 516q0 240 142.5 396.5t361.5 156.5q131 0 236 -70v691h123v-691q105 70 235 70q219 0 361.5 -156.5t142.5 -396.5q0 -243 -142 -398t-362 -155q-137 0 -235 80v-657h-123v657q-98 -80 -236 -80q-220 0 -362 155t-142 398zM227 516q0 -194 117 -322 q110 -120 264 -120q110 0 236 92v717q-106 75 -236 75q-154 0 -264 -119q-117 -126 -117 -323zM967 166q127 -92 235 -92q154 0 264 120q117 128 117 322q0 197 -117 323q-110 119 -264 119q-129 0 -235 -75v-717z" />
<glyph unicode="&#x445;" horiz-adv-x="940" d="M6 0l395 530l-370 502h137l303 -411l301 411h137l-370 -502l395 -530h-143l-320 442l-321 -442h-144z" />
<glyph unicode="&#x446;" horiz-adv-x="1180" d="M178 0v1032h123v-921h571v921h123v-921h133v-369h-118v258h-832z" />
<glyph unicode="&#x447;" horiz-adv-x="1026" d="M125 756v276h123v-276q0 -161 51 -208.5t215 -47.5h205v532h123v-1032h-123v389h-203q-231 0 -313 80q-78 76 -78 287z" />
<glyph unicode="&#x448;" horiz-adv-x="1757" d="M178 0v1032h123v-921h516v921h123v-921h516v921h123v-1032h-1401z" />
<glyph unicode="&#x449;" horiz-adv-x="1763" d="M178 0v1032h123v-921h516v921h123v-921h516v921h123v-921h133v-369h-119v258h-1415z" />
<glyph unicode="&#x44a;" horiz-adv-x="1118" d="M18 922v110h369v-434h277q193 0 289 -101q77 -81 77 -202q0 -295 -358 -295h-408v922h-246zM387 106h262q252 0 252 189q0 197 -250 197h-264v-386z" />
<glyph unicode="&#x44b;" horiz-adv-x="1358" d="M178 0v1032h123v-432h236q193 0 289 -101q77 -81 77 -202q0 -297 -358 -297h-367zM301 106h221q252 0 252 191q0 197 -250 197h-223v-388zM1057 0v1032h123v-1032h-123z" />
<glyph unicode="&#x44c;" horiz-adv-x="1038" d="M184 0v1032h123v-434h277q193 0 289 -101q77 -81 77 -202q0 -295 -358 -295h-408zM307 106h262q252 0 252 189q0 197 -250 197h-264v-386z" />
<glyph unicode="&#x44d;" horiz-adv-x="985" d="M68 6v125q102 -61 247 -61q224 0 335 140q81 104 93 271h-516v103h514q-19 149 -109 249q-115 130 -317 130q-129 0 -247 -54v119q127 41 247 41q262 0 412 -151q147 -148 147 -402q0 -277 -179 -426q-153 -127 -378 -127q-146 0 -249 43z" />
<glyph unicode="&#x44e;" horiz-adv-x="1655" d="M178 0v1032h123v-452h188q20 215 167 352t360 137q229 0 381.5 -157t152.5 -396t-152.5 -396t-381.5 -157q-219 0 -367 145t-160 371h-188v-479h-123zM612 516q0 -197 124 -323q117 -119 280 -119t280 119q125 127 125 323t-125 323q-117 119 -280 119t-280 -119 q-124 -126 -124 -323z" />
<glyph unicode="&#x44f;" horiz-adv-x="1014" d="M68 0l290 430q-130 28 -194 120q-53 75 -53 175q0 131 76 210q92 97 282 97h367v-1032h-123v420h-232l-266 -420h-147zM236 725q0 -203 253 -203h224v406h-221q-256 0 -256 -203z" />
<glyph unicode="&#x451;" horiz-adv-x="1278" d="M104 516q0 241 151 398t388 157q236 0 386 -157q147 -155 147 -392h-943q0 -201 112 -325.5t298 -124.5q275 0 365 225h135q-56 -156 -180 -243q-132 -93 -320 -93q-246 0 -395 158q-144 153 -144 397zM242 627h805q-38 156 -153 251q-111 91 -251 91t-251 -91 q-115 -95 -150 -251zM371 1307q0 40 28 66t68 26q37 0 63.5 -26.5t26.5 -65.5q0 -40 -26.5 -66.5t-63.5 -26.5q-40 0 -68 26.5t-28 66.5zM723 1307q0 40 28 66t68 26q37 0 63.5 -26.5t26.5 -65.5q0 -40 -26.5 -66.5t-63.5 -26.5q-40 0 -68 26.5t-28 66.5z" />
<glyph unicode="&#x452;" d="M63 428l211 211q-94 119 -94 266q0 149 94 271l-211 208l60 62l211 -213q120 96 268 96q146 0 270 -96l211 213l60 -62l-211 -208q94 -122 94 -271q0 -151 -94 -266l211 -211l-60 -61l-211 211q-120 -95 -270 -95q-144 0 -268 95l-211 -211zM266 909q0 -141 99.5 -240.5 t240.5 -99.5q138 0 238 100t100 240q0 138 -99 237t-239 99t-240 -99t-100 -237z" />
<glyph unicode="&#x453;" d="M63 428l211 211q-94 119 -94 266q0 149 94 271l-211 208l60 62l211 -213q120 96 268 96q146 0 270 -96l211 213l60 -62l-211 -208q94 -122 94 -271q0 -151 -94 -266l211 -211l-60 -61l-211 211q-120 -95 -270 -95q-144 0 -268 95l-211 -211zM266 909q0 -141 99.5 -240.5 t240.5 -99.5q138 0 238 100t100 240q0 138 -99 237t-239 99t-240 -99t-100 -237z" />
<glyph unicode="&#x454;" d="M63 428l211 211q-94 119 -94 266q0 149 94 271l-211 208l60 62l211 -213q120 96 268 96q146 0 270 -96l211 213l60 -62l-211 -208q94 -122 94 -271q0 -151 -94 -266l211 -211l-60 -61l-211 211q-120 -95 -270 -95q-144 0 -268 95l-211 -211zM266 909q0 -141 99.5 -240.5 t240.5 -99.5q138 0 238 100t100 240q0 138 -99 237t-239 99t-240 -99t-100 -237z" />
<glyph unicode="&#x455;" d="M63 428l211 211q-94 119 -94 266q0 149 94 271l-211 208l60 62l211 -213q120 96 268 96q146 0 270 -96l211 213l60 -62l-211 -208q94 -122 94 -271q0 -151 -94 -266l211 -211l-60 -61l-211 211q-120 -95 -270 -95q-144 0 -268 95l-211 -211zM266 909q0 -141 99.5 -240.5 t240.5 -99.5q138 0 238 100t100 240q0 138 -99 237t-239 99t-240 -99t-100 -237z" />
<glyph unicode="&#x456;" d="M63 428l211 211q-94 119 -94 266q0 149 94 271l-211 208l60 62l211 -213q120 96 268 96q146 0 270 -96l211 213l60 -62l-211 -208q94 -122 94 -271q0 -151 -94 -266l211 -211l-60 -61l-211 211q-120 -95 -270 -95q-144 0 -268 95l-211 -211zM266 909q0 -141 99.5 -240.5 t240.5 -99.5q138 0 238 100t100 240q0 138 -99 237t-239 99t-240 -99t-100 -237z" />
<glyph unicode="&#x457;" d="M63 428l211 211q-94 119 -94 266q0 149 94 271l-211 208l60 62l211 -213q120 96 268 96q146 0 270 -96l211 213l60 -62l-211 -208q94 -122 94 -271q0 -151 -94 -266l211 -211l-60 -61l-211 211q-120 -95 -270 -95q-144 0 -268 95l-211 -211zM266 909q0 -141 99.5 -240.5 t240.5 -99.5q138 0 238 100t100 240q0 138 -99 237t-239 99t-240 -99t-100 -237z" />
<glyph unicode="&#x458;" d="M63 428l211 211q-94 119 -94 266q0 149 94 271l-211 208l60 62l211 -213q120 96 268 96q146 0 270 -96l211 213l60 -62l-211 -208q94 -122 94 -271q0 -151 -94 -266l211 -211l-60 -61l-211 211q-120 -95 -270 -95q-144 0 -268 95l-211 -211zM266 909q0 -141 99.5 -240.5 t240.5 -99.5q138 0 238 100t100 240q0 138 -99 237t-239 99t-240 -99t-100 -237z" />
<glyph unicode="&#x459;" d="M63 428l211 211q-94 119 -94 266q0 149 94 271l-211 208l60 62l211 -213q120 96 268 96q146 0 270 -96l211 213l60 -62l-211 -208q94 -122 94 -271q0 -151 -94 -266l211 -211l-60 -61l-211 211q-120 -95 -270 -95q-144 0 -268 95l-211 -211zM266 909q0 -141 99.5 -240.5 t240.5 -99.5q138 0 238 100t100 240q0 138 -99 237t-239 99t-240 -99t-100 -237z" />
<glyph unicode="&#x45a;" d="M63 428l211 211q-94 119 -94 266q0 149 94 271l-211 208l60 62l211 -213q120 96 268 96q146 0 270 -96l211 213l60 -62l-211 -208q94 -122 94 -271q0 -151 -94 -266l211 -211l-60 -61l-211 211q-120 -95 -270 -95q-144 0 -268 95l-211 -211zM266 909q0 -141 99.5 -240.5 t240.5 -99.5q138 0 238 100t100 240q0 138 -99 237t-239 99t-240 -99t-100 -237z" />
<glyph unicode="&#x45b;" d="M63 428l211 211q-94 119 -94 266q0 149 94 271l-211 208l60 62l211 -213q120 96 268 96q146 0 270 -96l211 213l60 -62l-211 -208q94 -122 94 -271q0 -151 -94 -266l211 -211l-60 -61l-211 211q-120 -95 -270 -95q-144 0 -268 95l-211 -211zM266 909q0 -141 99.5 -240.5 t240.5 -99.5q138 0 238 100t100 240q0 138 -99 237t-239 99t-240 -99t-100 -237z" />
<glyph unicode="&#x45c;" d="M63 428l211 211q-94 119 -94 266q0 149 94 271l-211 208l60 62l211 -213q120 96 268 96q146 0 270 -96l211 213l60 -62l-211 -208q94 -122 94 -271q0 -151 -94 -266l211 -211l-60 -61l-211 211q-120 -95 -270 -95q-144 0 -268 95l-211 -211zM266 909q0 -141 99.5 -240.5 t240.5 -99.5q138 0 238 100t100 240q0 138 -99 237t-239 99t-240 -99t-100 -237z" />
<glyph unicode="&#x45e;" d="M63 428l211 211q-94 119 -94 266q0 149 94 271l-211 208l60 62l211 -213q120 96 268 96q146 0 270 -96l211 213l60 -62l-211 -208q94 -122 94 -271q0 -151 -94 -266l211 -211l-60 -61l-211 211q-120 -95 -270 -95q-144 0 -268 95l-211 -211zM266 909q0 -141 99.5 -240.5 t240.5 -99.5q138 0 238 100t100 240q0 138 -99 237t-239 99t-240 -99t-100 -237z" />
<glyph unicode="&#x45f;" d="M63 428l211 211q-94 119 -94 266q0 149 94 271l-211 208l60 62l211 -213q120 96 268 96q146 0 270 -96l211 213l60 -62l-211 -208q94 -122 94 -271q0 -151 -94 -266l211 -211l-60 -61l-211 211q-120 -95 -270 -95q-144 0 -268 95l-211 -211zM266 909q0 -141 99.5 -240.5 t240.5 -99.5q138 0 238 100t100 240q0 138 -99 237t-239 99t-240 -99t-100 -237z" />
<glyph unicode="&#x490;" d="M63 428l211 211q-94 119 -94 266q0 149 94 271l-211 208l60 62l211 -213q120 96 268 96q146 0 270 -96l211 213l60 -62l-211 -208q94 -122 94 -271q0 -151 -94 -266l211 -211l-60 -61l-211 211q-120 -95 -270 -95q-144 0 -268 95l-211 -211zM266 909q0 -141 99.5 -240.5 t240.5 -99.5q138 0 238 100t100 240q0 138 -99 237t-239 99t-240 -99t-100 -237z" />
<glyph unicode="&#x491;" d="M63 428l211 211q-94 119 -94 266q0 149 94 271l-211 208l60 62l211 -213q120 96 268 96q146 0 270 -96l211 213l60 -62l-211 -208q94 -122 94 -271q0 -151 -94 -266l211 -211l-60 -61l-211 211q-120 -95 -270 -95q-144 0 -268 95l-211 -211zM266 909q0 -141 99.5 -240.5 t240.5 -99.5q138 0 238 100t100 240q0 138 -99 237t-239 99t-240 -99t-100 -237z" />
<glyph unicode="&#x2000;" horiz-adv-x="930" />
<glyph unicode="&#x2001;" horiz-adv-x="1860" />
<glyph unicode="&#x2002;" horiz-adv-x="930" />
<glyph unicode="&#x2003;" horiz-adv-x="1860" />
<glyph unicode="&#x2004;" horiz-adv-x="620" />
<glyph unicode="&#x2005;" horiz-adv-x="465" />
<glyph unicode="&#x2006;" horiz-adv-x="310" />
<glyph unicode="&#x2007;" horiz-adv-x="310" />
<glyph unicode="&#x2008;" horiz-adv-x="232" />
<glyph unicode="&#x2009;" horiz-adv-x="372" />
<glyph unicode="&#x200a;" horiz-adv-x="103" />
<glyph unicode="&#x2010;" horiz-adv-x="768" d="M160 430v129h448v-129h-448z" />
<glyph unicode="&#x2011;" horiz-adv-x="768" d="M160 430v129h448v-129h-448z" />
<glyph unicode="&#x2012;" horiz-adv-x="768" d="M160 430v129h448v-129h-448z" />
<glyph unicode="&#x2013;" horiz-adv-x="1024" d="M-12 512v111h1048v-111h-1048z" />
<glyph unicode="&#x2014;" horiz-adv-x="2048" d="M-12 512v111h2072v-111h-2072z" />
<glyph unicode="&#x2018;" horiz-adv-x="604" d="M117 1020l260 524h102l-192 -524h-170z" />
<glyph unicode="&#x2019;" horiz-adv-x="604" d="M129 1020l193 524h170l-261 -524h-102z" />
<glyph unicode="&#x201a;" horiz-adv-x="604" d="M117 -295l196 522h170l-264 -522h-102z" />
<glyph unicode="&#x201c;" horiz-adv-x="909" d="M104 1020l261 524h102l-193 -524h-170zM434 1020l260 524h103l-193 -524h-170z" />
<glyph unicode="&#x201d;" horiz-adv-x="909" d="M100 1020l193 524h170l-260 -524h-103zM430 1020l193 524h170l-261 -524h-102z" />
<glyph unicode="&#x201e;" horiz-adv-x="909" d="M100 -285l193 525h170l-260 -525h-103zM430 -285l193 525h170l-261 -525h-102z" />
<glyph unicode="&#x2022;" horiz-adv-x="1237" d="M315 780q0 125 89 213t214 88q123 0 213.5 -89t90.5 -212q0 -124 -90.5 -214.5t-215.5 -90.5t-213 90t-88 215z" />
<glyph unicode="&#x2026;" horiz-adv-x="2048" d="M246 86q0 44 30.5 74t75.5 30q43 0 73 -30t30 -74t-30 -74t-73 -30q-45 0 -75.5 30t-30.5 74zM918 86q0 44 30.5 74t75.5 30q43 0 72.5 -30t29.5 -74t-29.5 -74t-72.5 -30q-45 0 -75.5 30t-30.5 74zM1593 86q0 44 31 74t76 30q43 0 72.5 -30t29.5 -74t-29.5 -74 t-72.5 -30q-45 0 -76 30t-31 74z" />
<glyph unicode="&#x202f;" horiz-adv-x="372" />
<glyph unicode="&#x2039;" horiz-adv-x="512" d="M84 537l3 6l2 3l2 2l3 6l240 388l86 -53l-213 -354l221 -340l-86 -52z" />
<glyph unicode="&#x203a;" horiz-adv-x="512" d="M84 195l219 340l-215 354l90 53l87 -140l163 -265l-4 -6l-258 -388z" />
<glyph unicode="&#x205f;" horiz-adv-x="465" />
<glyph unicode="&#x2122;" horiz-adv-x="2048" d="M295 1436v63h541v-63h-224v-621h-88v621h-229zM1004 815v684h131l225 -567l209 567h131v-684h-76v621l-233 -621h-62l-248 621v-621h-77z" />
<glyph unicode="&#xe000;" horiz-adv-x="1030" d="M0 0v1030h1030v-1030h-1030z" />
</font>
</defs>
</svg>
